Coordinates
version=1
nRows=8
nColumns=46
inDegrees=yes

Units are S.I. units (second, meters, Newtons, ...)
Angles are in degrees.

endheader
time	pelvis_tilt	pelvis_list	pelvis_rotation	pelvis_tx	pelvis_ty	pelvis_tz	bb_angle	bb_tx	bb_ty	bb_tz	hip_flexion_r	hip_adduction_r	hip_rotation_r	knee_angle_r	knee_angle_r_beta	ankle_angle_r	subtalar_angle_r	mtp_angle_r	crank_angle_r	hip_flexion_l	hip_adduction_l	hip_rotation_l	knee_angle_l	knee_angle_l_beta	ankle_angle_l	subtalar_angle_l	mtp_angle_l	crank_angle_l	lumbar_extension	lumbar_bending	lumbar_rotation	arm_flex_r	arm_add_r	arm_rot_r	elbow_flex_r	pro_sup_r	wrist_flex_r	wrist_dev_r	arm_flex_l	arm_add_l	arm_rot_l	elbow_flex_l	pro_sup_l	wrist_flex_l	wrist_dev_l
      2.50000000	    -17.59745293	      3.81754581	     13.53565065	      0.31278547	      1.23791121	     -0.24773980	      0.00000000	      0.50000000	      0.00000000	      0.25000000	     29.09467457	     -7.84008392	      3.01163183	     56.60837174	      0.98800247	    -19.95874154	    -12.54954165	      0.00000000	      0.00000000	     54.25531682	      7.34335068	      3.69662091	     65.88600122	      1.14992765	     12.62865720	     -4.57517298	      0.00000000	      0.00000000	    -65.20566491	      0.92534166	     -4.20162094	     52.83941798	    -19.24971548	     12.24729163	     72.88589799	     50.78500159	      0.00000000	      0.00000000	     67.78611140	     -5.24417798	     32.36804372	     60.40700238	     55.09605281	      0.00000000	      0.00000000
      2.50500000	    -17.64988004	      3.12602108	     13.49332240	      0.31301962	      1.23715731	     -0.24804328	      0.00000000	      0.50000000	      0.00000000	      0.25000000	     30.12314562	     -7.22323783	      2.74583575	     58.92804454	      1.02848840	    -18.42254379	    -12.33948521	      0.00000000	      0.00000000	     53.13519597	      6.84363712	      4.23681030	     63.50967227	      1.10845289	     12.09336378	     -4.63352656	      0.00000000	      0.00000000	    -65.20420825	      1.51063027	     -4.12204419	     53.32212931	    -18.91188483	     12.88440307	     72.97790357	     50.88935032	      0.00000000	      0.00000000	     67.15715420	     -5.90486142	     31.43206095	     61.81142924	     55.19634167	      0.00000000	      0.00000000
      2.51000000	    -17.50389021	      2.29573221	     13.42646040	      0.31308890	      1.23640416	     -0.24807687	      0.00000000	      0.50000000	      0.00000000	      0.25000000	     30.96418450	     -6.39277135	      2.39406254	     61.15151126	      1.06729521	    -17.21771721	    -12.76687453	      0.00000000	      0.00000000	     51.90923207	      6.09943272	      4.78289746	     61.25914870	      1.06917384	     11.56741257	     -4.42595186	      0.00000000	      0.00000000	    -65.33643260	      1.74512441	     -3.79974270	     53.55777076	    -18.74822670	     13.05426804	     72.85478635	     50.88852698	      0.00000000	      0.00000000	     67.08550529	     -6.07810766	     31.22302323	     62.12844591	     55.21910214	      0.00000000	      0.00000000
      2.51500000	    -17.57980104	      1.75453551	     13.31562793	      0.31321987	      1.23527728	     -0.24857666	      0.00000000	      0.50000000	      0.00000000	      0.25000000	     32.11552157	     -6.06768429	      2.09572713	     63.54789586	      1.10912002	    -15.57376144	    -12.15153115	      0.00000000	      0.00000000	     50.80980673	      5.48360236	      4.83534652	     58.91389723	      1.02824148	     10.75728427	     -4.34247605	      0.00000000	      0.00000000	    -65.18992055	      2.44924913	     -5.54545773	     55.52331067	    -16.56183177	     15.81499842	     70.36681396	     50.82272790	      0.00000000	      0.00000000	     65.17502624	     -8.77948857	     28.70285749	     66.13530389	     55.53013255	      0.00000000	      0.00000000
      2.52000000	    -17.63677226	      1.00430392	     13.12973820	      0.31328929	      1.23372650	     -0.24878020	      0.00000000	      0.50000000	      0.00000000	      0.25000000	     33.28845132	     -5.47564548	      1.73153281	     65.87864917	      1.14979933	    -14.05173612	    -11.86515337	      0.00000000	      0.00000000	     49.80992584	      4.82342384	      5.34354895	     56.80181561	      0.99137870	      9.76752816	     -4.55835048	      0.00000000	      0.00000000	    -64.98353031	      2.83771368	     -5.38821693	     55.86404441	    -16.12790728	     16.29882424	     70.12631657	     50.84944344	      0.00000000	      0.00000000	     64.80857327	     -9.31326647	     28.36818494	     66.62210732	     55.56513584	      0.00000000	      0.00000000
      2.52500000	    -17.58852218	      0.23286252	     12.87694431	      0.31360725	      1.23205034	     -0.24916875	      0.00000000	      0.50000000	      0.00000000	      0.25000000	     34.41375892	     -4.95097333	      1.21335849	     68.23826808	      1.19098245	    -12.74652315	    -11.71844021	      0.00000000	      0.00000000	     48.72891045	      4.02164709	      5.61807850	     54.70115950	      0.95471534	      8.95385177	     -5.03020781	      0.00000000	      0.00000000	    -64.82591501	      3.39230338	     -6.17512987	     57.15594654	    -14.65732447	     18.17525541	     68.38890868	     50.82776001	      0.00000000	      0.00000000	     63.52480705	    -11.13867930	     26.85826768	     68.94939332	     55.73847435	      0.00000000	      0.00000000
      2.53000000	    -17.69749350	     -0.58076122	     12.52329885	      0.31383320	      1.22994478	     -0.24962504	      0.00000000	      0.50000000	      0.00000000	      0.25000000	     35.75512916	     -4.37598825	      0.79393131	     70.60054996	      1.23221205	    -11.34107411	    -11.39273470	      0.00000000	      0.00000000	     47.83696141	      3.22691686	      6.03935365	     52.69028083	      0.91961888	      7.62045383	     -5.12867536	      0.00000000	      0.00000000	    -64.43111050	      3.73519028	     -5.86079247	     57.39983674	    -14.27216496	     18.65571616	     68.13824684	     50.85142618	      0.00000000	      0.00000000	     63.08500313	    -11.61832815	     26.60480722	     69.17910721	     55.74467706	      0.00000000	      0.00000000
      2.53500000	    -17.52299324	     -1.26299418	     12.07966807	      0.31395608	      1.22818382	     -0.24961781	      0.00000000	      0.50000000	      0.00000000	      0.25000000	     36.91557662	     -3.91122180	      0.41695416	     73.04629404	      1.27489834	     -9.96492135	    -10.68922060	      0.00000000	      0.00000000	     46.60133184	      2.33050630	      6.26988750	     50.65968123	      0.88417824	      6.46321569	     -5.26935970	      0.00000000	      0.00000000	    -64.36078170	      3.90826107	     -5.59088015	     57.82127550	    -13.92781084	     19.41750952	     67.69688971	     50.87564367	      0.00000000	      0.00000000	     62.69676756	    -12.22653708	     26.26331104	     69.70099555	     55.78743481	      0.00000000	      0.00000000
